<svg xmlns="http://www.w3.org/2000/svg" width="1965" height="707" viewBox="-50.5 -50.5 1965 707" fill="">
    <rect x="-50.5" y="-50.5" width="1965" height="707" fill="white"/>
    <path fill="#ad1014" d="m730.137 1.664 4.137-.01q10.796-.027 21.592-.025c6.638.002 13.277-.02 19.915-.051q8.661-.038 17.322-.036c3.417 0 6.834-.005 10.25-.026 34.77-.181 34.77-.181 50.147 8.359l2.008 1.068c1.845.995 3.67 2.02 5.492 3.057l2.473 1.36c9.503 5.755 17.465 14.538 25.254 22.378 2.265 2.277 4.556 4.452 7.023 6.512 3.408 2.933 6.594 6.05 9.75 9.25 3.074 3.116 6.167 6.159 9.5 9s6.426 5.884 9.5 9c3.053 3.095 6.123 6.12 9.438 8.938 4.106 3.5 7.85 7.322 11.638 11.157a166 166 0 0 0 10.365 9.565c3.131 2.798 6.047 5.808 8.995 8.796 2.584 2.605 5.206 5.105 8.001 7.481 3.54 3.017 6.798 6.257 10.063 9.563 3.245 3.285 6.48 6.507 10 9.5 4.089 3.475 7.808 7.281 11.576 11.095a166 166 0 0 0 10.365 9.565c3.13 2.798 6.046 5.806 8.993 8.793 2.605 2.627 5.25 5.147 8.066 7.547 3.85 3.282 7.381 6.853 10.931 10.45 3.226 3.253 6.562 6.285 10.057 9.241 2.392 2.15 4.552 4.473 6.762 6.809 23.972 24.082 67.342 20.94 98.636 21.12 63.556 2.765 63.556 2.765 120.29-20.6 12.577-13.163 13.824-33.302 14.324-50.52l.066-2.064c.405-14.325-.103-28.606-9.886-40.069-16.743-15.658-44.08-16.915-65.802-17.489-3.79-.122-7.49-.447-11.23-1.093l-2.19-.375c-3.003-1.396-3.667-2.87-4.958-5.91-.449-3.08-.488-6.13-.512-9.238l-.054-2.67c-.054-2.801-.088-5.602-.121-8.404q-.05-2.858-.104-5.713-.126-6.988-.209-13.975c-3.577 1.668-5.585 3.504-8.187 6.5l-2.352 2.68L1185 55a2240 2240 0 0 1-5.062 5.625l-2.286 2.54L1176 65c-5.305-1.875-7.099-6.741-9.805-11.348-1.999-2.937-1.999-2.937-5.453-3.523L1158 50l-.773 2.168c-1.315 3.034-2.922 5.464-4.852 8.145l-1.914 2.675L1149 65c-3.571-1.486-5.545-3.467-8.062-6.375l-2.348-2.672L1136 53a1031 1031 0 0 0-6-6.625l-1.457-1.615A191 191 0 0 0 1125 41h-1l-.044 3.776c-.058 4.632-.135 9.263-.218 13.894q-.051 3.004-.084 6.008c-.034 2.883-.086 5.764-.142 8.646l-.02 2.706c-.112 4.776-.353 8.112-3.492 11.97-2.407 1.204-3.998 1.166-6.689 1.228l-2.997.074-3.303.065-3.47.079c-10.603.226-21.209.361-31.814.465-7.122.071-14.24.172-21.36.351-6.22.156-12.437.254-18.659.284-3.287.018-6.568.07-9.854.176-22.598.692-22.598.692-31.064-7.216-2.527-2.707-4.832-5.53-7.088-8.465-2.369-2.84-5.075-5.158-7.906-7.525-2.598-2.192-4.921-4.584-7.296-7.016-3.051-3.097-6.123-6.12-9.437-8.937-4.107-3.5-7.85-7.323-11.639-11.158a166 166 0 0 0-10.365-9.565c-3.128-2.796-6.042-5.802-8.986-8.787-3.257-3.284-6.634-6.35-10.147-9.354C914.459 9.64 911.126 6.41 908 3V2a131249 131249 0 0 1 138.597-.167c15.374-.013 30.747-.037 46.121-.064q23.727-.043 47.454-.051 14.598-.005 29.196-.042 10.06-.023 20.12-.017c3.848.002 7.696 0 11.544-.017 15.775-.064 31.392.336 47.111 1.739l2.1.186C1295.204 7.65 1345.546 18.785 1376 55c3.381 4.442 6.23 9.16 9 14 .565.976 1.13 1.952 1.71 2.957 3.037 5.633 5.198 11.373 7.04 17.48l.603 1.986c3.555 12.557 4.02 25.066 3.96 38.015l-.007 2.543c-.054 13.197-.562 26.067-3.306 39.019l-.586 2.794c-5.44 24.942-15.59 47.85-32.414 67.206l-2.332 2.734c-5.71 6.511-11.784 12.025-18.668 17.266l-2.93 2.324c-61.085 47.129-147.742 46.061-220.9 45.99-5.514-.004-11.028.01-16.542.03-6.05.02-12.1.022-18.15.019q-3.808 0-7.616.015c-30.07.106-52.42-5.082-74.862-26.378l-3.828-3.59a3577 3577 0 0 1-6.28-5.894 502 502 0 0 0-11.142-10.204c-4.313-3.841-8.37-7.9-12.426-12.008-3.32-3.346-6.744-6.479-10.332-9.53-3.334-2.968-6.415-6.19-9.55-9.364-2.714-2.679-5.55-5.156-8.446-7.633-3.063-2.727-5.898-5.671-8.777-8.59A120 120 0 0 0 923 210.5c-3.794-3.252-7.274-6.757-10.781-10.312A120 120 0 0 0 906 194.5c-2.971-2.547-5.751-5.214-8.5-8-2.728-2.766-5.485-5.413-8.437-7.937-3.173-2.72-6.126-5.59-9.063-8.563-2.916-2.952-5.846-5.804-9-8.5-4.076-3.485-7.796-7.28-11.562-11.094A121 121 0 0 0 853 144.5c-4.073-3.482-7.79-7.276-11.555-11.086-2.736-2.702-5.595-5.205-8.515-7.703-2.063-1.829-3.996-3.747-5.93-5.711a161 161 0 0 0-10.074-9.344 120 120 0 0 1-3.633-3.25C802.037 97.073 787.188 94.22 772.5 92.312l-2.743-.361c-18.696-2.213-37.645-2.156-56.444-2.138h-3.342c-60.21-2.141-60.21-2.141-112.78 21.648-14.244 16.504-14.315 44.823-12.949 65.484.68 7.217 2.05 13.775 5.758 20.055l.984 1.848C597.185 209.07 609.963 213.283 621 216c30.56 6.622 62.624 5.108 93.702 4.941q11.543-.058 23.085-.07l3.417-.004 13.888-.012c13.061-.012 26.121-.043 39.182-.133q15.675-.108 31.35-.08c5.509.01 11.015-.002 16.523-.065 5.166-.06 10.33-.062 15.497-.022q2.83.007 5.66-.05c15.687-.297 15.687-.297 22.098 5.708 2.348 2.488 4.46 5.116 6.598 7.787a93 93 0 0 0 4.188 3.688c3.738 3.18 7.148 6.632 10.593 10.125A120 120 0 0 0 913 253.5c3.794 3.252 7.274 6.757 10.781 10.313A120 120 0 0 0 930 269.5c3.794 3.252 7.274 6.757 10.781 10.313A120 120 0 0 0 947 285.5c3.786 3.245 7.26 6.741 10.758 10.293 2.723 2.68 5.582 5.157 8.515 7.602 1.85 1.72 3.237 3.572 4.727 5.605a193369 193369 0 0 1-137.186.111q-22.833.015-45.668.043-23.48.029-46.959.034-14.455.003-28.91.028-9.95.015-19.901.011c-3.811-.001-7.622 0-11.433.011-23.5.064-47.045-.501-70.318-4.05l-3.466-.514C575.193 299.75 540.823 290.868 516 269l-2.547-2.148c-21.362-18.45-31.147-44.036-34.203-71.54A172 172 0 0 1 479 190l-.121-3.594C478.039 147.59 485.852 105.762 511 75l1.352-1.667c35.69-43.74 90.636-60.126 144.71-67.583l3.285-.458c23.175-2.97 46.453-3.615 69.79-3.628"/><path d="m1539.49 5.733 2.34.013 2.48-.01c2.76-.007 5.52-.001 8.279.005q2.958-.004 5.918-.01a5605 5605 0 0 1 16.132 0c5.64.005 11.28 0 16.92-.002q14.244-.005 28.487.01 16.389.015 32.779-.003 14.104-.013 28.21-.006 8.408.007 16.814-.003 7.94-.007 15.88.01 2.886.004 5.772-.002c18.27-.039 36.675.829 54.624 4.452l3.257.648C1798.246 15.182 1818.305 22.469 1835 36l2.39 1.895c14.579 12.173 23.32 30.25 25.43 49.011 2.505 29.007-5.208 58.409-23.82 81.094-2.915 3.419-5.92 6.73-9 10l-1.633 1.828c-14.226 15.299-33.841 23.206-53.367 29.172 3.48 4.104 7.015 8.128 10.688 12.062 19.56 21.485 35.802 46.265 52.142 70.224q1.59 2.325 3.19 4.644l1.668 2.445 1.386 2.023C1845 302 1845 302 1845 304h-138l-15-26c-2.74-4.653-5.483-9.301-8.25-13.938-4.77-8.03-9.54-16.06-14.25-24.125l-1.403-2.38C1665 232.232 1665 232.232 1665 230h-134l-1 10a241 241 0 0 1-1.107 6.687l-.658 3.67-.704 3.858-.728 4.038q-.758 4.2-1.523 8.399-.979 5.378-1.947 10.76-.75 4.155-1.503 8.31-.533 2.947-1.065 5.894l-.658 3.603-.576 3.172C1519 301 1519 301 1518 304h-103c1.125-12.375 1.125-12.375 2.063-17.776l.637-3.709q.346-1.976.693-3.95l.734-4.252q.99-5.72 1.99-11.44 1.044-6 2.084-12 1.746-10.06 3.5-20.116 2.029-11.633 4.045-23.267 1.943-11.208 3.894-22.414l1.655-9.533q.97-5.598 1.95-11.196.36-2.057.715-4.115.486-2.8.977-5.599l.552-3.169C1441 149 1441 149 1442 147l1.793-.002a77728 77728 0 0 0 117.976-.206l2.546-.005c13.583-.031 27.167-.048 40.751-.06q20.922-.02 41.844-.082 12.9-.038 25.8-.036 8.858-.001 17.714-.041 5.104-.023 10.206-.014c3.7.007 7.4-.011 11.1-.035l3.211.023c10.947-.124 22.887-2.795 31.059-10.542 4.65-6.427 6.149-12.009 6.25-19.875l.078-3.617c-.49-5.237-2.294-8.424-5.89-12.196-7.29-5.574-16.514-5.75-25.308-5.71l-3.503-.02c-3.853-.02-7.705-.017-11.557-.014q-4.155-.013-8.31-.031-8.928-.033-17.857-.04c-8.607-.006-17.213-.029-25.819-.056q-20.948-.063-41.895-.095-20.34-.03-40.682-.084l-2.536-.006-12.593-.034c-34.793-.093-69.585-.164-104.378-.222 1.62-3.444 3.425-5.607 6.188-8.25 2.794-2.728 5.483-5.452 8-8.438 3.404-3.978 7.093-7.632 10.812-11.312 5.415-5.345 5.415-5.345 10.5-11 3.851-4.559 8.147-8.671 12.385-12.865 3.572-3.55 6.961-7.167 10.213-11.014 3.22-3.59 6.692-6.93 10.12-10.32 3.667-3.641 7.173-7.365 10.512-11.313 2.887-3.384 4.31-3.722 8.76-3.755M191.438 8.375c9.164 7.165 17.158 15.806 24.758 24.576 3.096 3.517 6.33 6.901 9.554 10.299a1372 1372 0 0 1 16.48 17.73c3.21 3.51 6.459 6.984 9.708 10.458q7.29 7.796 14.52 15.645c3.85 4.177 7.725 8.33 11.604 12.48a1978 1978 0 0 1 15.098 16.347c3.83 4.178 7.707 8.313 11.578 12.453 4.255 4.552 8.488 9.123 12.707 13.707q4.1 4.45 8.239 8.864c.624.666 1.249 1.332 1.892 2.02a2284 2284 0 0 0 3.617 3.847c2.622 2.795 5.172 5.606 7.592 8.578 1.944 2.65 1.944 2.65 4.215 3.621l.135-2.108c.602-8.294 1.834-16.406 3.258-24.593l.734-4.301q.99-5.783 1.99-11.565c.698-4.046 1.39-8.094 2.084-12.142q1.745-10.178 3.5-20.354a28233 28233 0 0 0 4.49-26.122 54035 54035 0 0 1 5.104-29.72q.973-5.664 1.95-11.327l.715-4.156q.486-2.835.977-5.669l.552-3.204c.422-2.263.953-4.506 1.511-6.739h94c-1.323 10.58-2.763 21.031-4.607 31.517l-.77 4.434q-1.038 5.972-2.085 11.943-1.115 6.383-2.225 12.768-1.88 10.8-3.768 21.596-1.897 10.853-3.787 21.704l-.463 2.66-.924 5.304a29360 29360 0 0 1-8.264 47.276 7130 7130 0 0 0-5.66 32.726q-1.411 8.26-2.84 16.516c-.628 3.643-1.252 7.287-1.863 10.932-4.455 26.551-9.353 53.243-31.846 70.636C379.133 307.827 362.812 310.625 344 309c-13.084-2.55-23.784-12.046-32.184-21.93-1.859-2.119-3.806-4.094-5.816-6.07-3.272-3.222-6.293-6.586-9.285-10.066-1.675-1.889-3.414-3.666-5.215-5.434a120 120 0 0 1-6.937-7.437A134 134 0 0 0 277 250c-3.272-3.222-6.293-6.586-9.285-10.066-1.675-1.889-3.414-3.666-5.215-5.434a120 120 0 0 1-6.937-7.437A134 134 0 0 0 248 219c-3.272-3.222-6.293-6.586-9.285-10.066-1.675-1.889-3.414-3.666-5.215-5.434a120 120 0 0 1-6.937-7.437A134 134 0 0 0 219 188c-3.272-3.222-6.293-6.586-9.285-10.066-1.675-1.889-3.414-3.666-5.215-5.434a120 120 0 0 1-6.937-7.437c-3.034-3.522-6.26-6.78-9.57-10.04-2.642-2.682-5.1-5.501-7.548-8.359A72 72 0 0 0 177 143c-1.335 4.475-2.42 8.857-3.22 13.465l-.668 3.806-.71 4.122-.764 4.383q-1.034 5.927-2.058 11.857c-.717 4.142-1.44 8.283-2.16 12.424q-2.048 11.763-4.087 23.526-2.998 17.267-6.001 34.533l-.887 5.098-.437 2.514a36296 36296 0 0 0-4.165 23.98l-.739 4.261-1.01 5.82-.57 3.288A400 400 0 0 1 148 304H54c.6-6.591 1.2-12.92 2.357-19.392l.406-2.335q.667-3.817 1.345-7.632l.966-5.525q1.309-7.478 2.63-14.957 1.39-7.904 2.775-15.809 2.338-13.324 4.683-26.649 2.972-16.886 5.934-33.774a104813 104813 0 0 1 6.792-38.683c1.858-10.577 3.724-21.152 5.606-31.724 1.04-5.85 2.057-11.705 3.062-17.561.685-3.981 1.383-7.96 2.083-11.938q.487-2.794.958-5.59c4.053-24.015 11.05-44.877 30.954-60.423 18.65-12.876 47.508-16.72 66.887-3.633M613 326c4.604 5.333 7.72 11.061 10.625 17.438q1.428 3.057 2.863 6.113l1.643 3.506c3.38 7.165 6.887 14.27 10.37 21.387q3.292 6.73 6.577 13.462l1.294 2.651a4800 4800 0 0 1 10.69 22.068 7818 7818 0 0 0 16.313 33.625 16948 16948 0 0 1 23.678 48.73 71122 71122 0 0 0 28.484 58.723c3.35 6.903 6.707 13.803 10.091 20.69q2.395 4.876 4.782 9.756 1.146 2.337 2.298 4.67 1.592 3.228 3.17 6.462l.964 1.936c1.364 2.807 2.158 4.616 2.158 7.783H448c1.779-3.557 2.915-5.114 5.688-7.75 4.005-3.904 7.667-8.012 11.312-12.25q2.149-2.475 4.313-4.937l1.988-2.278c2.597-2.728 3.487-2.778 7.38-2.908q2.457-.006 4.912.003l2.727-.003q4.551 0 9.102.01l6.504-.001q8.85.001 17.701.013c6.16.006 12.321.006 18.482.008q17.51.005 35.02.021 19.929.015 39.858.022 41.006.016 82.013.05l-1.455-2.987q-2.723-5.59-5.444-11.184l-2.338-4.8c-4.896-10.049-9.717-20.124-14.388-30.279A1526 1526 0 0 0 657.5 496.5a1743 1743 0 0 1-15.656-33.082c-3.86-8.35-7.825-16.644-11.844-24.918-5.144-10.59-10.152-21.238-15.081-31.93-4.688-10.14-9.533-20.201-14.427-30.244l-1.691-3.478-1.495-3.063A121 121 0 0 1 594 362c-3.804 3.707-7.312 7.579-10.75 11.625l-1.598 1.871a599 599 0 0 0-9.09 10.942c-5.154 6.345-10.536 12.487-15.902 18.652-6.12 7.043-12.22 14.1-18.097 21.348-4.103 5.051-8.35 9.965-12.623 14.872-3.987 4.581-7.928 9.197-11.841 13.841-3.384 4.013-6.8 7.996-10.224 11.974a547 547 0 0 0-10.312 12.313c-4.102 5.05-8.349 9.963-12.62 14.87-4.923 5.656-9.774 11.37-14.605 17.104a6415 6415 0 0 1-6.776 8.026l-1.363 1.613c-3.42 4.042-6.87 8.06-10.324 12.074a548 548 0 0 0-10.312 12.313c-4.103 5.051-8.35 9.965-12.623 14.872-3.987 4.581-7.928 9.197-11.841 13.841-3.384 4.013-6.8 7.996-10.224 11.974a701 701 0 0 0-13.23 15.863c-6.166 7.542-22.294 7.945-31.592 8.952-16.321 1.624-34.932 2.417-48.73-7.952-6.783-5.981-12.596-12.831-18.354-19.777l-2.702-3.23a2012 2012 0 0 1-12.521-15.18 3490 3490 0 0 0-7.183-8.739l-1.443-1.752c-22.879-27.728-44.681-49.077-81.76-53.048-19.8-1.853-39.638-1.662-59.485-.887l-2.852.108A992 992 0 0 0 50 506l-.381 2.95c-.94 7.181-1.927 14.337-3.223 21.464l-.444 2.49q-.71 3.967-1.429 7.936l-1 5.585Q42.22 553.7 40.91 560.97q-1.34 7.452-2.675 14.904Q35.623 590.438 33 605H0c1.125-12.375 1.125-12.375 1.873-16.63l.51-2.94.55-3.096.587-3.36q.954-5.44 1.918-10.88l1.333-7.6q1.393-7.933 2.794-15.865 1.619-9.167 3.226-18.335 1.551-8.845 3.11-17.689l1.32-7.512q.92-5.232 1.845-10.462l.551-3.145.51-2.871.44-2.496C21 480 21 480 22 477l3.343-.007q40.395-.089 80.788-.229 19.534-.07 39.07-.11 17.04-.035 34.08-.103 9.01-.037 18.02-.049 8.507-.01 17.015-.056 3.098-.014 6.194-.011c17.536.01 35.482-.973 52.365-6.123l2.583-.763C288.626 465.463 302.354 459.032 312 449h2l.793-1.723c1.3-2.453 2.839-4.505 4.52-6.714 9.44-13.284 10.806-27.79 9.687-43.563-1.83-10.726-7.824-20.192-16.5-26.75-24.089-15.336-52.125-16.54-79.864-16.569l-6.157-.03c-5.503-.027-11.005-.043-16.508-.056-5.776-.015-11.552-.042-17.329-.068q-16.36-.068-32.722-.116c-12.43-.039-24.861-.088-37.292-.138Q84.314 353.119 46 353q.225-2.849.455-5.697l.256-3.204c.386-4.14 1.035-8.2 1.789-12.286l.395-2.268c.973-5.413.973-5.413 2.105-6.545 2.71-.102 5.393-.139 8.103-.134l2.606-.007q4.357-.007 8.716-.004l6.223-.01q8.487-.013 16.975-.012l10.621-.006q18.555-.013 37.109-.012 17.243-.001 34.484-.026 14.828-.019 29.655-.018 8.842.002 17.686-.013 8.347-.014 16.695-.003a1723 1723 0 0 0 6.079-.007c33.885-.095 69.493 2.93 96.048 26.252l2.344 2.02c11.492 10.606 18.876 26.241 19.833 41.87.58 28.418-3.91 52.074-24.092 73.545-6.972 7.14-14.323 12.81-23.085 17.565l-1.932 1.053C296.238 495.083 275.937 498.955 255 502q2.995 3.035 6 6.063l1.676 1.7c2.827 2.845 5.69 5.577 8.754 8.164 5.432 4.733 10.47 9.86 15.542 14.97a3470 3470 0 0 0 5.453 5.477q6.77 6.793 13.533 13.594 5.732 5.763 11.472 11.518a4227 4227 0 0 1 5.33 5.362c5.068 5.09 10.139 10.124 15.627 14.765 2.676 2.301 5.141 4.808 7.613 7.324l1.48 1.495q1.763 1.781 3.52 3.568c4.308-1.578 6.731-4.885 9.563-8.312a1252.49 1252.49 0 0 0 4.843-5.778 713 713 0 0 1 4.508-5.34c4.208-4.94 8.374-9.905 12.461-14.945 4.167-5.122 8.487-10.1 12.825-15.075 3.925-4.512 7.734-9.103 11.5-13.75 3.678-4.477 7.47-8.856 11.25-13.25 6.225-7.238 12.41-14.509 18.425-21.925 4.167-5.122 8.487-10.1 12.825-15.075 3.925-4.512 7.734-9.103 11.5-13.75 3.68-4.48 7.475-8.862 11.257-13.257 4.257-4.949 8.465-9.938 12.675-14.925q2.09-2.47 4.184-4.934c4.233-4.984 8.441-9.98 12.559-15.059 4.167-5.122 8.487-10.1 12.825-15.075 3.925-4.512 7.734-9.103 11.5-13.75 3.678-4.477 7.47-8.856 11.25-13.25 6.225-7.238 12.41-14.509 18.425-21.925 4.747-5.831 9.667-11.505 14.617-17.164a251 251 0 0 0 5.078-5.984c5.497-6.674 11.955-11.87 20.668-13.36 6.6-.342 12.22 1.626 17.262 5.883M1700.487 322.797c5.095.013 10.191.014 15.286.016 9.612.006 19.223.023 28.834.043 10.958.022 21.916.033 32.874.043q33.76.032 67.519.101c-1.71 3.664-3.76 5.935-6.688 8.75-3.104 3.037-6.113 6.075-8.937 9.375l-1.59 1.8c-1.797 2.035-1.797 2.035-3.32 4.17-2.911 3.556-5.166 5.613-9.724 6.638-4.094.279-8.12.3-12.219.235q-2.35.007-4.699.024c-4.24.02-8.48-.008-12.721-.045-4.46-.03-8.919-.012-13.378.001-8.46.018-16.918-.003-25.378-.04a7654 7654 0 0 0-37.065-.046l-2.766.002-5.47.004q-7.927.004-15.856-.031c-29.799-.196-29.799-.196-59.189 4.35l-2.765.652c-26.245 6.448-48.567 18.666-68.235 37.161l-1.79 1.594c-20.345 18.9-32.401 48.933-33.448 76.297-.507 24.381 4.574 45.354 19.238 65.109l1.348 1.906c14.867 19.277 41.71 29.691 65.025 32.814 15.48 1.651 31.046 1.415 46.592 1.381 3.458-.006 6.916-.006 10.374-.008q9.78-.005 19.558-.021 12.25-.017 24.5-.023c14.534-.01 29.068-.03 43.603-.049l18-101h-171c1.946-3.891 3.602-5.782 6.687-8.75 3.704-3.624 7.214-7.3 10.547-11.266L1616 452l1.213-1.48c2.768-3.13 4.202-4.401 8.415-5.258a96 96 0 0 1 4.117.016l2.305-.015c2.538-.01 5.075.023 7.614.056q2.735.002 5.47-.003c4.944-.002 9.887.034 14.831.076 5.17.037 10.338.04 15.507.048 9.786.018 19.57.068 29.356.128 11.141.067 22.283.1 33.424.13 22.916.063 45.832.168 68.748.302-6.405 37.503-12.897 74.988-19.636 112.433q-1.43 7.961-2.858 15.922-2.75 15.323-5.506 30.645-32.873.106-65.747.155-15.267.022-30.534.071-13.323.046-26.644.056c-4.694.004-9.387.013-14.08.035-38.598.174-80.106-1.681-110.995-28.317l-2.55-2.176c-2.534-2.226-4.999-4.508-7.45-6.824l-2.309-2.113c-20.333-19.277-31.84-49.208-32.757-76.89-1.108-42.34 13.112-80.384 42.304-111.2 26.181-26.514 60.188-43.392 96.637-50.61l2.925-.59c24.003-4.428 48.388-3.87 72.687-3.8M1212.875 324.75c8.322 8.07 15.494 17.433 22.79 26.414 3.694 4.486 7.495 8.88 11.284 13.285 6.226 7.24 12.412 14.51 18.426 21.926 4.167 5.122 8.487 10.1 12.825 15.075 3.925 4.512 7.734 9.103 11.5 13.75 2.68 3.263 5.42 6.473 8.175 9.675l1.537 1.787 1.537 1.787c6.226 7.24 12.412 14.51 18.426 21.926 4.167 5.122 8.487 10.1 12.825 15.075 3.925 4.512 7.734 9.103 11.5 13.75 2.68 3.263 5.42 6.473 8.175 9.675l1.537 1.787 1.537 1.787c6.226 7.24 12.412 14.51 18.426 21.926 3.622 4.453 7.354 8.798 11.125 13.125a574 574 0 0 1 13.29 15.781 950 950 0 0 0 7.773 9.407l1.34 1.606L1410 558c2.826-11.338 4.813-22.795 6.813-34.3l1.12-6.39q1.51-8.625 3.012-17.25 1.577-9.042 3.161-18.084 2.993-17.11 5.978-34.221 3.395-19.453 6.799-38.904a190304 190304 0 0 0 12.574-71.979l.433-2.479.402-2.302.344-1.97c.464-2.705.913-5.413 1.364-8.121h32c-2.297 16.081-2.297 16.081-3.464 22.665l-.405 2.315q-.659 3.758-1.32 7.513l-.958 5.463q-1.294 7.38-2.592 14.76-1.376 7.832-2.749 15.664-2.615 14.905-5.234 29.81a104815 104815 0 0 0-7.553 43.035 55690 55690 0 0 1-7.76 44.149l-.526 2.986a7054 7054 0 0 0-6.258 36.093c-.798 4.678-1.603 9.354-2.406 14.03a2953 2953 0 0 0-1.759 10.448q-.525 3.065-1.053 6.128l-.432 2.662c-1.765 10.076-4.654 17.44-12.656 24.029-3.334 2.222-6.283 2.435-10.187 2.5l-2.801.078c-6.139-.698-9.74-3.81-13.7-8.328l-2.62-2.98a570 570 0 0 1-9.153-11.07c-2.753-3.364-5.576-6.66-8.414-9.95a670 670 0 0 1-12.656-15.156c-2.737-3.32-5.535-6.584-8.344-9.844-3.555-4.125-7.068-8.272-10.5-12.5-4.387-5.4-8.912-10.675-13.45-15.95-6.244-7.26-12.446-14.556-18.487-21.987-3.958-4.864-8.028-9.622-12.121-14.371a491 491 0 0 1-8.942-10.692c-4.387-5.4-8.912-10.675-13.45-15.95-6.244-7.26-12.446-14.556-18.487-21.988-3.958-4.863-8.028-9.62-12.121-14.37-3.775-4.39-7.45-8.853-11.098-13.348-2.737-3.32-5.535-6.584-8.344-9.844a686 686 0 0 1-12.754-15.246c-4.04-4.953-8.147-9.85-12.246-14.754-1.518 4.256-2.536 8.388-3.312 12.837l-.355 2.011c-.39 2.213-.772 4.428-1.155 6.642l-.84 4.784q-1.139 6.51-2.27 13.02-1.201 6.902-2.412 13.803a37305 37305 0 0 0-4.596 26.33 67389 67389 0 0 1-5.615 32.159l-.501 2.871-4.458 25.503a20296 20296 0 0 1-12.392 70.33l-.633 3.553q-.859 4.816-1.72 9.632l-.499 2.796-.456 2.54c-.13.72-.258 1.438-.39 2.178-.397 2.019-.897 4.016-1.396 6.011h-31c.592-6.517 1.163-12.592 2.292-18.964l.386-2.198q.632-3.588 1.274-7.174.46-2.6.918-5.2 1.245-7.052 2.5-14.1 1.33-7.497 2.654-14.996 2.528-14.301 5.067-28.602 3.367-18.984 6.724-37.97a46901 46901 0 0 1 8.133-45.87l.524-2.952a7821 7821 0 0 0 6.71-38.369q1.24-7.183 2.487-14.364 1.133-6.536 2.24-13.077.51-3 1.033-6.001.62-3.568 1.214-7.14c1.698-9.641 3.746-18.46 11.711-24.675 7.625-4.818 16.948-4.384 24.008 1.402M954.083 322.797c5.04.013 10.079.014 15.118.016 9.505.006 19.01.023 28.515.043 10.837.022 21.674.033 32.511.043q33.387.032 66.773.101c-1.34 2.781-2.567 4.803-4.793 6.953l-1.65 1.615-1.744 1.682c-4.268 4.183-8.413 8.38-12.25 12.969L1075 348l-2.193 2.573c-3.397 2.937-4.855 3.05-9.283 3.046l-3.97.033-4.336-.04q-2.293.005-4.585.017-4.938.018-9.874-.007c-5.229-.024-10.457-.013-15.685.004-9.242.024-18.483.019-27.725.006q-20.76-.029-41.518.02-7.758.016-15.515-.01c-21.879-.057-43.88.09-65.128 6.046l-2.833.77c-36.267 10.276-66.208 32.192-85.265 64.812-13.72 25.419-16.703 56.227-8.673 83.883 1.428 4.525 3.348 8.673 5.583 12.847l1.453 2.879c12.273 22.847 34.782 36.58 59.047 43.996 15.24 4.179 30.433 5.574 46.18 5.557l5.329.031c4.755.027 9.51.037 14.265.043 4.994.01 9.988.036 14.982.06 9.427.044 18.854.072 28.281.095 10.745.028 21.49.072 32.236.117q33.113.136 66.227.222c-1.369 2.833-2.71 4.99-4.871 7.285l-1.744 1.861-1.822 1.917-1.717 1.833a222 222 0 0 1-3.626 3.76c-2.29 2.358-2.29 2.358-4.465 5.116-4.943 5.716-8.274 8.881-16.125 9.571-2.84.08-5.668.024-8.508-.047q-2.36.003-4.72.02c-4.249.016-8.493-.036-12.74-.102-4.473-.058-8.946-.055-13.42-.06-7.52-.016-15.04-.074-22.56-.16-9.59-.108-19.179-.154-28.77-.178-8.31-.02-16.62-.067-24.93-.12q-3.955-.024-7.911-.043c-45.61-.255-87.898-6.575-121.605-40.126C759.282 551.79 750.21 535.242 745 517l-.637-2.182c-9.866-35.393-2.61-74.791 15.028-106.4 5.555-9.592 12.089-18.203 19.656-26.313a85 85 0 0 0 4.516-5.292c29.697-34.267 80.364-49.99 124.03-53.4 15.46-1 31.006-.661 46.49-.616M1111 323h33c-.605 6.05-1.216 11.763-2.272 17.699l-.379 2.148q-.622 3.514-1.254 7.03l-.903 5.092q-1.227 6.92-2.463 13.837-1.315 7.385-2.626 14.769-2.508 14.12-5.025 28.237a68126 68126 0 0 0-5.535 31.119q-4.878 27.447-9.77 54.89a47748 47748 0 0 0-6.535 36.733q-2.125 11.973-4.254 23.945-1.25 7.02-2.493 14.04-1.145 6.47-2.299 12.939-.42 2.362-.837 4.725-.566 3.204-1.14 6.408l-.642 3.616C1095 603 1095 603 1094 605h-33c4.88-29.656 10.043-59.257 15.258-88.855l2.116-12.015q3.506-19.92 7.017-39.839l.378-2.145.379-2.148a88403 88403 0 0 0 6.117-34.753 91009 91009 0 0 1 6.317-35.877q1.769-10.034 3.532-20.07 1.65-9.384 3.307-18.768.609-3.449 1.213-6.896.823-4.687 1.654-9.373l.485-2.784.45-2.52.384-2.185C1110 325 1110 325 1111 323"/>
</svg>