<svg width="513" height="513" viewBox="0 0 513 513" fill="none" xmlns="http://www.w3.org/2000/svg">
<rect x="0.464844" y="0.148438" width="512" height="512" fill="black"/>
<path d="M439.019 132.262H269.677C254.271 132.262 240.528 141.946 235.345 156.454L189.252 285.463L245.707 379.874L298.766 225.207C299.83 222.106 302.747 220.022 306.026 220.022H407.624C416.558 220.022 419.61 231.929 411.778 236.227L283.981 306.365C276.362 310.547 273.73 320.215 278.18 327.681L309.46 380.172H400.751C406.709 380.172 410.395 373.68 407.342 368.564L356.868 283.972C355.19 281.16 356.193 277.516 359.073 275.958L461.382 220.628C504.303 197.416 487.814 132.262 439.019 132.262Z" fill="#FF1E1E"/>
<path d="M128.445 372.345L55.8963 247.695L38.4067 218.743C34.0153 214.072 37.327 206.413 43.738 206.413H123.138C125.035 206.413 126.716 205.191 127.301 203.387L147.556 140.964C149.312 135.552 154.355 131.887 160.045 131.887H228.506C231.534 131.887 233.647 134.888 232.626 137.739L206.723 210.042C204.853 215.261 199.906 218.743 194.362 218.743H139.404C137.705 218.743 136.654 220.596 137.526 222.055L181.721 295.941C182.67 297.527 185.036 297.296 185.659 295.556L206.616 237.101C207.864 233.621 212.597 233.159 214.493 236.333L289.003 361.022C289.8 362.355 291.238 363.171 292.791 363.171C295.579 363.171 297.315 360.146 295.909 357.739L284.147 337.605L364.903 297.299L406.541 367.164C410.018 372.998 405.814 380.398 399.022 380.398H213.106C210.021 380.398 207.164 378.774 205.585 376.123L185.857 342.995C184.946 341.465 182.687 341.606 181.973 343.236L168.037 375.052C166.619 378.289 163.393 380.356 159.86 380.292L141.404 379.955C136.051 379.857 131.138 376.972 128.445 372.345Z" fill="white"/>
</svg>
