<?xml version="1.0" encoding="UTF-8"?>
<!DOCTYPE svg PUBLIC "-//W3C//DTD SVG 1.1//EN" "http://www.w3.org/Graphics/SVG/1.1/DTD/svg11.dtd">
<svg xmlns="http://www.w3.org/2000/svg" version="1.1" width="1376px" height="368px" viewBox="460 180 620 400" style="shape-rendering:geometricPrecision; text-rendering:geometricPrecision; image-rendering:optimizeQuality; fill-rule:evenodd; clip-rule:evenodd" xmlns:xlink="http://www.w3.org/1999/xlink">
<g><path style="opacity:1" fill="#272727" d="M -0.5,-0.5 C 458.167,-0.5 916.833,-0.5 1375.5,-0.5C 1375.5,255.5 1375.5,511.5 1375.5,767.5C 916.833,767.5 458.167,767.5 -0.5,767.5C -0.5,511.5 -0.5,255.5 -0.5,-0.5 Z"/></g>
<g><path style="opacity:1" fill="#6b6b5" d="M 317.5,196.5 C 312.04,197.737 306.373,198.404 300.5,198.5C 305.929,196.988 311.596,196.321 317.5,196.5 Z"/></g>
<g><path style="opacity:1" fill="#f9f9f9" d="M 317.5,196.5 C 361.442,194.4 401.775,205.233 438.5,229C 461.357,246.187 479.523,267.353 493,292.5C 494.444,294.155 496.278,294.822 498.5,294.5C 497.167,296.167 495.833,297.833 494.5,299.5C 490.773,304.23 486.44,308.23 481.5,311.5C 453.894,313.936 426.227,314.936 398.5,314.5C 395.853,312.189 393.186,309.856 390.5,307.5C 387.812,309.521 385.479,311.854 383.5,314.5C 382.833,314.5 382.167,314.5 381.5,314.5C 363.714,313.735 346.048,311.902 328.5,309C 311.455,305.681 297.289,310.514 286,323.5C 277.33,338.888 277.664,354.221 287,369.5C 291.898,377.896 297.732,385.562 304.5,392.5C 298.44,398.555 292.774,404.889 287.5,411.5C 285.246,410.585 283.246,409.252 281.5,407.5C 277.833,403.167 273.833,399.167 269.5,395.5C 264.833,390.167 259.833,385.167 254.5,380.5C 253.167,378.5 251.5,376.833 249.5,375.5C 245.854,371.188 241.854,367.188 237.5,363.5C 233.146,367.188 229.146,371.188 225.5,375.5C 222.5,377.833 219.833,380.5 217.5,383.5C 212.5,387.833 207.833,392.5 203.5,397.5C 196.5,403.833 189.833,410.5 183.5,417.5C 181.5,418.833 179.833,420.5 178.5,422.5C 171.446,429.558 164.112,436.225 156.5,442.5C 139.666,403.829 135.499,363.829 144,322.5C 155.834,279.66 181.001,247.16 219.5,225C 244.729,210.646 271.729,201.812 300.5,198.5C 306.373,198.404 312.04,197.737 317.5,196.5 Z"/></g>
<g><path style="opacity:1" fill="#f6f6f6" d="M 692.5,213.5 C 692.5,239.833 692.5,266.167 692.5,292.5C 658.5,292.5 624.5,292.5 590.5,292.5C 590.5,303.833 590.5,315.167 590.5,326.5C 588.167,326.5 585.833,326.5 583.5,326.5C 583.333,287.165 583.5,247.832 584,208.5C 589.503,205.143 591.669,206.81 590.5,213.5C 624.5,213.5 658.5,213.5 692.5,213.5 Z"/></g>
<g><path style="opacity:1" fill="#000000" d="M 630.5,216.5 C 630.5,224.5 630.5,232.5 630.5,240.5C 624.167,240.5 617.833,240.5 611.5,240.5C 611.5,232.5 611.5,224.5 611.5,216.5C 617.833,216.5 624.167,216.5 630.5,216.5 Z"/></g>
<g><path style="opacity:1" fill="#848585" d="M 651.5,215.5 C 651.5,223.833 651.5,232.167 651.5,240.5C 657.833,240.5 664.167,240.5 670.5,240.5C 670.5,232.167 670.5,223.833 670.5,215.5C 671.493,223.65 671.826,231.983 671.5,240.5C 678.022,240.177 684.355,240.51 690.5,241.5C 684.167,241.5 677.833,241.5 671.5,241.5C 671.167,241.5 670.833,241.5 670.5,241.5C 664.167,241.5 657.833,241.5 651.5,241.5C 651.5,249.5 651.5,257.5 651.5,265.5C 657.833,265.5 664.167,265.5 670.5,265.5C 670.5,265.833 670.5,266.167 670.5,266.5C 664.167,266.5 657.833,266.5 651.5,266.5C 651.5,274.5 651.5,282.5 651.5,290.5C 650.508,282.684 650.174,274.684 650.5,266.5C 650.5,266.167 650.5,265.833 650.5,265.5C 650.5,257.5 650.5,249.5 650.5,241.5C 650.5,241.167 650.5,240.833 650.5,240.5C 650.174,231.983 650.507,223.65 651.5,215.5 Z"/></g>
<g><path style="opacity:1" fill="#030302" d="M 651.5,215.5 C 657.833,215.5 664.167,215.5 670.5,215.5C 670.5,223.833 670.5,232.167 670.5,240.5C 664.167,240.5 657.833,240.5 651.5,240.5C 651.5,232.167 651.5,223.833 651.5,215.5 Z"/></g>
<g><path style="opacity:1" fill="#5d5e5d" d="M 630.5,216.5 C 624.167,216.5 617.833,216.5 611.5,216.5C 611.5,224.5 611.5,232.5 611.5,240.5C 617.833,240.5 624.167,240.5 630.5,240.5C 637.167,240.5 643.833,240.5 650.5,240.5C 650.5,240.833 650.5,241.167 650.5,241.5C 644.167,241.5 637.833,241.5 631.5,241.5C 631.167,241.5 630.833,241.5 630.5,241.5C 624.167,241.5 617.833,241.5 611.5,241.5C 611.167,241.5 610.833,241.5 610.5,241.5C 604.167,241.5 597.833,241.5 591.5,241.5C 591.5,249.5 591.5,257.5 591.5,265.5C 597.833,265.5 604.167,265.5 610.5,265.5C 610.5,265.833 610.5,266.167 610.5,266.5C 603.833,266.5 597.167,266.5 590.5,266.5C 590.5,257.833 590.5,249.167 590.5,240.5C 597.167,240.5 603.833,240.5 610.5,240.5C 610.5,232.167 610.5,223.833 610.5,215.5C 617.354,215.176 624.021,215.509 630.5,216.5 Z"/></g>
<g><path style="opacity:1" fill="#000000" d="M 610.5,241.5 C 610.5,249.5 610.5,257.5 610.5,265.5C 604.167,265.5 597.833,265.5 591.5,265.5C 591.5,257.5 591.5,249.5 591.5,241.5C 597.833,241.5 604.167,241.5 610.5,241.5 Z"/></g>
<g><path style="opacity:1" fill="#f9f9f9" d="M 611.5,241.5 C 617.833,241.5 624.167,241.5 630.5,241.5C 630.5,249.5 630.5,257.5 630.5,265.5C 624.167,265.5 617.833,265.5 611.5,265.5C 611.5,257.5 611.5,249.5 611.5,241.5 Z"/></g>
<g><path style="opacity:1" fill="#000000" d="M 631.5,241.5 C 637.833,241.5 644.167,241.5 650.5,241.5C 650.5,249.5 650.5,257.5 650.5,265.5C 644.167,265.5 637.833,265.5 631.5,265.5C 631.5,257.5 631.5,249.5 631.5,241.5 Z"/></g>
<g><path style="opacity:1" fill="#f9f9f9" d="M 670.5,241.5 C 670.5,249.5 670.5,257.5 670.5,265.5C 664.167,265.5 657.833,265.5 651.5,265.5C 651.5,257.5 651.5,249.5 651.5,241.5C 657.833,241.5 664.167,241.5 670.5,241.5 Z"/></g>
<g><path style="opacity:1" fill="#000000" d="M 671.5,241.5 C 677.833,241.5 684.167,241.5 690.5,241.5C 690.5,249.5 690.5,257.5 690.5,265.5C 684.167,265.5 677.833,265.5 671.5,265.5C 671.5,257.5 671.5,249.5 671.5,241.5 Z"/></g>
<g><path style="opacity:1" fill="#a12d2b" d="M 561.5,254.5 C 562.501,248.496 563.501,242.496 564.5,236.5C 551.718,240.445 538.718,243.612 525.5,246C 524.549,246.718 524.383,247.551 525,248.5C 528.758,251.751 531.925,255.418 534.5,259.5C 531.495,263.667 528.328,267.667 525,271.5C 523.989,272.337 522.822,272.67 521.5,272.5C 524.86,267.765 528.86,263.432 533.5,259.5C 530.167,255.5 526.5,251.833 522.5,248.5C 521.614,247.675 521.281,246.675 521.5,245.5C 534.668,242.459 547.668,238.959 560.5,235C 562.81,234.503 565.143,234.337 567.5,234.5C 566.874,241.701 564.874,248.368 561.5,254.5 Z"/></g>
<g><path style="opacity:1" fill="#dc2222" d="M 561.5,254.5 C 561.5,254.833 561.5,255.167 561.5,255.5C 558.683,262.171 556.683,269.171 555.5,276.5C 554.998,277.521 554.332,277.688 553.5,277C 551.559,274.546 549.225,272.713 546.5,271.5C 545.143,270.315 543.643,269.315 542,268.5C 540.019,269.65 538.186,270.984 536.5,272.5C 533.798,275.504 530.464,277.838 526.5,279.5C 523.218,281.758 521.218,284.758 520.5,288.5C 520.167,289.167 519.833,289.833 519.5,290.5C 515.206,291.798 512.206,294.465 510.5,298.5C 508.738,298.643 507.071,298.309 505.5,297.5C 504.317,301.402 503.317,301.236 502.5,297C 503.833,296.333 505.167,295.667 506.5,295C 505.278,293.437 505.278,291.937 506.5,290.5C 511.523,284.481 516.523,278.481 521.5,272.5C 522.822,272.67 523.989,272.337 525,271.5C 528.328,267.667 531.495,263.667 534.5,259.5C 531.925,255.418 528.758,251.751 525,248.5C 524.383,247.551 524.549,246.718 525.5,246C 538.718,243.612 551.718,240.445 564.5,236.5C 563.501,242.496 562.501,248.496 561.5,254.5 Z"/></g>
<g><path style="opacity:1" fill="#053636" d="M 630.5,241.5 C 630.833,241.5 631.167,241.5 631.5,241.5C 631.5,249.5 631.5,257.5 631.5,265.5C 637.833,265.5 644.167,265.5 650.5,265.5C 650.5,265.833 650.5,266.167 650.5,266.5C 643.833,266.5 637.167,266.5 630.5,266.5C 630.5,266.167 630.5,265.833 630.5,265.5C 630.5,257.5 630.5,249.5 630.5,241.5 Z"/></g>
<g><path style="opacity:1" fill="#aa2c2b" d="M 561.5,255.5 C 560.462,263.319 558.629,270.986 556,278.5C 555.282,279.451 554.449,279.617 553.5,279C 550.961,276.63 548.628,274.13 546.5,271.5C 549.225,272.713 551.559,274.546 553.5,277C 554.332,277.688 554.998,277.521 555.5,276.5C 556.683,269.171 558.683,262.171 561.5,255.5 Z"/></g>
<g><path style="opacity:1" fill="#898988" d="M 610.5,241.5 C 610.833,241.5 611.167,241.5 611.5,241.5C 611.5,249.5 611.5,257.5 611.5,265.5C 617.833,265.5 624.167,265.5 630.5,265.5C 630.5,265.833 630.5,266.167 630.5,266.5C 624.167,266.5 617.833,266.5 611.5,266.5C 611.5,274.833 611.5,283.167 611.5,291.5C 610.507,283.35 610.174,275.017 610.5,266.5C 610.5,266.167 610.5,265.833 610.5,265.5C 610.5,257.5 610.5,249.5 610.5,241.5 Z"/></g>
<g><path style="opacity:1" fill="#383938" d="M 670.5,241.5 C 670.833,241.5 671.167,241.5 671.5,241.5C 671.5,249.5 671.5,257.5 671.5,265.5C 677.833,265.5 684.167,265.5 690.5,265.5C 684.021,266.491 677.354,266.824 670.5,266.5C 670.5,266.167 670.5,265.833 670.5,265.5C 670.5,257.5 670.5,249.5 670.5,241.5 Z"/></g>
<g><path style="opacity:1" fill="#020202" d="M 630.5,266.5 C 630.5,274.833 630.5,283.167 630.5,291.5C 624.167,291.5 617.833,291.5 611.5,291.5C 611.5,283.167 611.5,274.833 611.5,266.5C 617.833,266.5 624.167,266.5 630.5,266.5 Z"/></g>
<g><path style="opacity:1" fill="#020303" d="M 670.5,266.5 C 670.5,274.833 670.5,283.167 670.5,291.5C 663.978,291.823 657.645,291.49 651.5,290.5C 651.5,282.5 651.5,274.5 651.5,266.5C 657.833,266.5 664.167,266.5 670.5,266.5 Z"/></g>
<g><path style="opacity:1" fill="#b82828" d="M 536.5,272.5 C 536.013,273.473 535.513,274.473 535,275.5C 530.161,279.868 525.327,284.201 520.5,288.5C 521.218,284.758 523.218,281.758 526.5,279.5C 530.464,277.838 533.798,275.504 536.5,272.5 Z"/></g>
<g><path style="opacity:1" fill="#adaead" d="M 692.5,213.5 C 693.498,239.995 693.831,266.661 693.5,293.5C 659.5,293.5 625.5,293.5 591.5,293.5C 591.828,304.679 591.495,315.679 590.5,326.5C 590.5,315.167 590.5,303.833 590.5,292.5C 624.5,292.5 658.5,292.5 692.5,292.5C 692.5,266.167 692.5,239.833 692.5,213.5 Z"/></g>
<g><path style="opacity:1" fill="#ac2f2f" d="M 521.5,272.5 C 516.523,278.481 511.523,284.481 506.5,290.5C 503.114,294.206 499.114,297.206 494.5,299.5C 495.833,297.833 497.167,296.167 498.5,294.5C 505.849,286.963 513.516,279.63 521.5,272.5 Z"/></g>
<g><path style="opacity:1" fill="#f1e0dd" d="M 505.5,305.5 C 506.11,306.391 506.443,307.391 506.5,308.5C 505.081,309.451 503.415,309.784 501.5,309.5C 501.5,309.167 501.5,308.833 501.5,308.5C 502.637,307.211 503.97,306.211 505.5,305.5 Z"/></g>
<g><path style="opacity:1" fill="#5d5c5c" d="M 381.5,314.5 C 378.854,317.146 376.188,319.812 373.5,322.5C 372.37,323.622 371.703,324.956 371.5,326.5C 368.553,327.644 365.887,329.311 363.5,331.5C 354.777,339.554 346.777,348.221 339.5,357.5C 336.5,360.833 333.5,364.167 330.5,367.5C 327.397,369.423 324.397,371.59 321.5,374C 320.748,374.671 320.414,375.504 320.5,376.5C 314.813,381.52 309.48,386.853 304.5,392.5C 297.732,385.562 291.898,377.896 287,369.5C 277.664,354.221 277.33,338.888 286,323.5C 297.289,310.514 311.455,305.681 328.5,309C 346.048,311.902 363.714,313.735 381.5,314.5 Z"/></g>
<g><path style="opacity:1" fill="#5d5c5c" d="M 506.5,308.5 C 517.969,331.396 526.803,355.396 533,380.5C 539.573,407.18 543.906,434.18 546,461.5C 544.855,462.636 543.688,463.636 542.5,464.5C 486.563,458.151 431.23,448.318 376.5,435C 352.971,428.742 332.304,417.575 314.5,401.5C 322.778,394.219 330.444,386.219 337.5,377.5C 338.75,375.846 340.084,374.179 341.5,372.5C 341.5,371.833 341.833,371.5 342.5,371.5C 348.557,365.107 354.891,359.107 361.5,353.5C 363.612,352.56 365.612,351.394 367.5,350C 374.159,342.008 381.159,334.341 388.5,327C 389.833,326.333 391.167,326.333 392.5,327C 393.789,328.802 395.456,329.969 397.5,330.5C 397.771,332.312 398.438,333.978 399.5,335.5C 404.171,339.525 408.837,343.525 413.5,347.5C 420.554,354.558 427.888,361.225 435.5,367.5C 436.249,369.246 437.583,370.246 439.5,370.5C 442.161,368.173 444.828,365.84 447.5,363.5C 449.479,362.188 451.145,360.521 452.5,358.5C 455.263,357.896 457.597,356.562 459.5,354.5C 466.79,346.204 474.124,337.871 481.5,329.5C 483.113,327.73 485.113,326.564 487.5,326C 492.981,321.117 497.648,315.617 501.5,309.5C 503.415,309.784 505.081,309.451 506.5,308.5 Z"/></g>
<g><path style="opacity:1" fill="#81504c" d="M 501.5,308.5 C 501.5,308.833 501.5,309.167 501.5,309.5C 497.648,315.617 492.981,321.117 487.5,326C 485.113,326.564 483.113,327.73 481.5,329.5C 481.369,328.761 481.536,328.094 482,327.5C 488.295,320.982 494.795,314.648 501.5,308.5 Z"/></g>
<g><path style="opacity:1" fill="#a93b36" d="M 381.5,314.5 C 382.167,314.5 382.833,314.5 383.5,314.5C 380.851,318.315 378.018,321.981 375,325.5C 366.319,334.681 357.152,343.348 347.5,351.5C 349.739,347.916 352.406,344.583 355.5,341.5C 361.055,336.706 366.389,331.706 371.5,326.5C 371.703,324.956 372.37,323.622 373.5,322.5C 376.188,319.812 378.854,317.146 381.5,314.5 Z"/></g>
<g><path style="opacity:1" fill="#804c49" d="M 371.5,326.5 C 366.389,331.706 361.055,336.706 355.5,341.5C 352.406,344.583 349.739,347.916 347.5,351.5C 345.5,352.833 343.833,354.5 342.5,356.5C 341.391,356.557 340.391,356.89 339.5,357.5C 346.777,348.221 354.777,339.554 363.5,331.5C 365.887,329.311 368.553,327.644 371.5,326.5 Z"/></g>
<g><path style="opacity:1" fill="#f4f4f4" d="M 770.5,345.5 C 781.461,344.175 791.794,346.009 801.5,351C 808.828,357.157 812.828,364.99 813.5,374.5C 807.824,374.666 802.157,374.499 796.5,374C 793.576,361.206 785.576,356.539 772.5,360C 763.932,365.84 760.265,374.007 761.5,384.5C 761.261,392.066 762.428,399.399 765,406.5C 770.357,413.085 777.191,415.251 785.5,413C 791.857,410.801 795.191,406.301 795.5,399.5C 801.5,399.5 807.5,399.5 813.5,399.5C 811.656,414.513 803.323,423.679 788.5,427C 771.066,430.644 757.566,425.144 748,410.5C 746.063,406.354 744.729,402.021 744,397.5C 742.592,386.23 743.592,375.23 747,364.5C 752.345,354.979 760.178,348.645 770.5,345.5 Z"/></g>
<g><path style="opacity:1" fill="#f9f9f9" d="M 881.5,346.5 C 881.5,350.833 881.5,355.167 881.5,359.5C 868.167,359.5 854.833,359.5 841.5,359.5C 841.177,366.022 841.51,372.355 842.5,378.5C 853.833,378.5 865.167,378.5 876.5,378.5C 876.5,382.833 876.5,387.167 876.5,391.5C 864.833,391.5 853.167,391.5 841.5,391.5C 841.5,398.5 841.5,405.5 841.5,412.5C 854.656,413.496 867.99,413.829 881.5,413.5C 881.5,417.833 881.5,422.167 881.5,426.5C 862.5,426.5 843.5,426.5 824.5,426.5C 824.5,399.833 824.5,373.167 824.5,346.5C 843.5,346.5 862.5,346.5 881.5,346.5 Z"/></g>
<g><path style="opacity:1" fill="#f4f4f4" d="M 1175.5,368.5 C 1175.5,369.833 1175.5,371.167 1175.5,372.5C 1171.5,372.5 1167.5,372.5 1163.5,372.5C 1161.9,361.572 1155.57,355.906 1144.5,355.5C 1132.05,357.45 1125.22,364.783 1124,377.5C 1122.82,387.42 1123.82,397.087 1127,406.5C 1134.45,418.07 1144.29,420.57 1156.5,414C 1160.26,410.648 1162.59,406.481 1163.5,401.5C 1167.78,400.508 1172.12,400.174 1176.5,400.5C 1175.07,414.758 1167.41,423.591 1153.5,427C 1124.31,429.146 1109.98,415.479 1110.5,386C 1110.61,356.552 1125.28,343.218 1154.5,346C 1166.21,349.209 1173.21,356.709 1175.5,368.5 Z"/></g>
<g><path style="opacity:1" fill="#854d48" d="M 481.5,329.5 C 474.124,337.871 466.79,346.204 459.5,354.5C 457.597,356.562 455.263,357.896 452.5,358.5C 451.145,360.521 449.479,362.188 447.5,363.5C 450.867,358.536 454.701,353.87 459,349.5C 460.171,348.107 461.671,347.273 463.5,347C 468.439,341.058 473.773,335.391 479.5,330C 480.094,329.536 480.761,329.369 481.5,329.5 Z"/></g>
<g><path style="opacity:1" fill="#f7f7f7" d="M 617.5,397.5 C 612.695,396.513 607.695,396.179 602.5,396.5C 602.5,406.5 602.5,416.5 602.5,426.5C 596.5,426.5 590.5,426.5 584.5,426.5C 584.5,399.833 584.5,373.167 584.5,346.5C 599.17,346.333 613.837,346.5 628.5,347C 645.861,351.053 652.695,361.886 649,379.5C 647.92,381.996 646.586,384.33 645,386.5C 641.711,388.888 638.544,391.388 635.5,394C 641.24,404.813 647.24,415.479 653.5,426C 646.833,426.667 640.167,426.667 633.5,426C 628.281,416.392 622.948,406.892 617.5,397.5 Z"/></g>
<g><path style="opacity:1" fill="#f5f6f5" d="M 689.5,346.5 C 695.758,346.19 701.924,346.524 708,347.5C 718.999,373.67 729.499,400.004 739.5,426.5C 733.167,426.5 726.833,426.5 720.5,426.5C 718.998,420.827 716.998,415.327 714.5,410C 704.167,409.333 693.833,409.333 683.5,410C 681.002,415.327 679.002,420.827 677.5,426.5C 671.167,426.5 664.833,426.5 658.5,426.5C 668.83,399.845 679.163,373.179 689.5,346.5 Z"/></g>
<g><path style="opacity:1" fill="#f3f4f3" d="M 952.5,356.5 C 943.833,356.5 935.167,356.5 926.5,356.5C 926.5,379.833 926.5,403.167 926.5,426.5C 922.167,426.5 917.833,426.5 913.5,426.5C 913.5,403.5 913.5,380.5 913.5,357.5C 905.16,357.666 896.827,357.5 888.5,357C 887.544,353.606 887.211,350.106 887.5,346.5C 909.167,346.5 930.833,346.5 952.5,346.5C 952.5,349.833 952.5,353.167 952.5,356.5 Z"/></g>
<g><path style="opacity:1" fill="#f1f1f1" d="M 1025.5,425.5 C 1021.03,426.486 1016.36,426.819 1011.5,426.5C 1006.05,416.439 1000.72,406.272 995.5,396C 989.509,395.501 983.509,395.334 977.5,395.5C 977.5,405.833 977.5,416.167 977.5,426.5C 972.833,426.5 968.167,426.5 963.5,426.5C 963.5,399.833 963.5,373.167 963.5,346.5C 975.838,346.333 988.171,346.5 1000.5,347C 1017.61,350.029 1024.78,360.196 1022,377.5C 1019.59,384.909 1014.76,390.076 1007.5,393C 1013.73,403.723 1019.73,414.556 1025.5,425.5 Z"/></g>
<g><path style="opacity:1" fill="#f3f3f3" d="M 1060.5,346.5 C 1065.1,346.2 1069.6,346.533 1074,347.5C 1084.01,373.7 1094.51,399.7 1105.5,425.5C 1100.87,426.662 1096.2,426.828 1091.5,426C 1089.46,420.064 1087.13,414.231 1084.5,408.5C 1072.85,407.501 1061.19,407.168 1049.5,407.5C 1047.5,413.833 1045.5,420.167 1043.5,426.5C 1038.79,426.827 1034.12,426.493 1029.5,425.5C 1040.13,399.243 1050.47,372.91 1060.5,346.5 Z"/></g>
<g><path style="opacity:1" fill="#f9f9f9" d="M 1202.5,379.5 C 1213.65,380.495 1224.99,380.828 1236.5,380.5C 1236.5,383.5 1236.5,386.5 1236.5,389.5C 1224.99,389.172 1213.65,389.505 1202.5,390.5C 1202.5,399.167 1202.5,407.833 1202.5,416.5C 1216.17,416.5 1229.83,416.5 1243.5,416.5C 1243.5,419.833 1243.5,423.167 1243.5,426.5C 1225.5,426.5 1207.5,426.5 1189.5,426.5C 1189.5,399.833 1189.5,373.167 1189.5,346.5C 1207.17,346.5 1224.83,346.5 1242.5,346.5C 1242.5,349.833 1242.5,353.167 1242.5,356.5C 1229.17,356.5 1215.83,356.5 1202.5,356.5C 1202.5,364.167 1202.5,371.833 1202.5,379.5 Z"/></g>
<g><path style="opacity:1" fill="#272727" d="M 977.5,356.5 C 985.253,356.104 992.92,356.604 1000.5,358C 1009.91,362.796 1012.07,369.962 1007,379.5C 1005.59,380.787 1004.09,381.954 1002.5,383C 994.251,384.406 985.917,384.906 977.5,384.5C 977.5,375.167 977.5,365.833 977.5,356.5 Z"/></g>
<g><path style="opacity:1" fill="#787977" d="M 881.5,346.5 C 882.486,350.97 882.819,355.637 882.5,360.5C 869.167,360.5 855.833,360.5 842.5,360.5C 842.5,366.5 842.5,372.5 842.5,378.5C 841.51,372.355 841.177,366.022 841.5,359.5C 854.833,359.5 868.167,359.5 881.5,359.5C 881.5,355.167 881.5,350.833 881.5,346.5 Z"/></g>
<g><path style="opacity:1" fill="#272727" d="M 622.5,360.5 C 628.81,361.476 631.81,365.142 631.5,371.5C 631.636,378.363 628.302,382.03 621.5,382.5C 615.5,382.5 609.5,382.5 603.5,382.5C 603.5,375.167 603.5,367.833 603.5,360.5C 609.833,360.5 616.167,360.5 622.5,360.5 Z"/></g>
<g><path style="opacity:1" fill="#a43d39" d="M 381.5,332.5 C 374.447,339.218 367.78,346.218 361.5,353.5C 354.891,359.107 348.557,365.107 342.5,371.5C 344.17,368.168 346.337,365.168 349,362.5C 355.333,357.667 360.833,352 365.5,345.5C 370.637,340.847 375.971,336.513 381.5,332.5 Z"/></g>
<g><path style="opacity:1" fill="#272727" d="M 1066.5,361.5 C 1071.8,372.717 1076.13,384.384 1079.5,396.5C 1071.17,396.5 1062.83,396.5 1054.5,396.5C 1058.5,384.845 1062.5,373.178 1066.5,361.5 Z"/></g>
<g><path style="opacity:1" fill="#b83a33" d="M 249.5,375.5 C 245.462,373.639 242.128,370.806 239.5,367C 237.326,366.123 235.659,366.623 234.5,368.5C 231.767,371.239 228.767,373.573 225.5,375.5C 229.146,371.188 233.146,367.188 237.5,363.5C 241.854,367.188 245.854,371.188 249.5,375.5 Z"/></g>
<g><path style="opacity:1" fill="#dc1e1f" d="M 249.5,375.5 C 251.5,376.833 253.167,378.5 254.5,380.5C 255.609,383.429 256.942,386.262 258.5,389C 255.641,389.685 253.808,390.852 253,392.5C 251.269,391.259 249.436,390.259 247.5,389.5C 245.476,385.625 242.809,382.125 239.5,379C 237.423,378.808 235.423,378.308 233.5,377.5C 234.506,376.604 234.506,375.938 233.5,375.5C 231.902,376.485 230.235,376.651 228.5,376C 231.437,374.232 233.437,371.732 234.5,368.5C 235.659,366.623 237.326,366.123 239.5,367C 242.128,370.806 245.462,373.639 249.5,375.5 Z"/></g>
<g><path style="opacity:1" fill="#272727" d="M 698.5,366.5 C 702.531,375.576 706.198,384.909 709.5,394.5C 702.532,395.497 695.532,395.83 688.5,395.5C 691.557,385.724 694.89,376.057 698.5,366.5 Z"/></g>
<g><path style="opacity:1" fill="#8c4644" d="M 330.5,367.5 C 327.789,371.212 324.456,374.212 320.5,376.5C 320.414,375.504 320.748,374.671 321.5,374C 324.397,371.59 327.397,369.423 330.5,367.5 Z"/></g>
<g><path style="opacity:1" fill="#959795" d="M 1175.5,368.5 C 1176.45,369.919 1176.78,371.585 1176.5,373.5C 1171.97,373.818 1167.63,373.485 1163.5,372.5C 1167.5,372.5 1171.5,372.5 1175.5,372.5C 1175.5,371.167 1175.5,369.833 1175.5,368.5 Z"/></g>
<g><path style="opacity:1" fill="#656564" d="M 622.5,360.5 C 616.167,360.5 609.833,360.5 603.5,360.5C 603.5,367.833 603.5,375.167 603.5,382.5C 609.5,382.5 615.5,382.5 621.5,382.5C 615.355,383.49 609.022,383.823 602.5,383.5C 602.5,375.5 602.5,367.5 602.5,359.5C 609.354,359.176 616.021,359.509 622.5,360.5 Z"/></g>
<g><path style="opacity:1" fill="#76544f" d="M 337.5,377.5 C 330.444,386.219 322.778,394.219 314.5,401.5C 313.833,401.5 313.167,401.5 312.5,401.5C 313.167,400.167 314.167,399.167 315.5,398.5C 322.854,391.479 330.187,384.479 337.5,377.5 Z"/></g>
<g><path style="opacity:1" fill="#f9f9f8" d="M 247.5,389.5 C 251.833,394.5 256.5,399.167 261.5,403.5C 267.167,409.833 273.167,415.833 279.5,421.5C 281.311,424.847 283.978,426.68 287.5,427C 295.393,417.941 303.726,409.441 312.5,401.5C 313.167,401.5 313.833,401.5 314.5,401.5C 332.304,417.575 352.971,428.742 376.5,435C 431.23,448.318 486.563,458.151 542.5,464.5C 543.594,466.359 544.427,468.359 545,470.5C 546.641,488.093 545.308,505.427 541,522.5C 536.644,535.903 531.31,548.903 525,561.5C 520.228,570.073 513.061,572.906 503.5,570C 438.929,548.774 373.262,531.774 306.5,519C 271.484,513.108 236.484,507.108 201.5,501C 192.989,498.155 185.822,493.321 180,486.5C 174.155,476.139 168.321,465.806 162.5,455.5C 186.417,430.078 211.083,404.912 236.5,380C 237.167,379.333 237.833,379.333 238.5,380C 241.001,383.667 244.001,386.834 247.5,389.5 Z"/></g>
<g><path style="opacity:1" fill="#a03f3b" d="M 341.5,372.5 C 340.084,374.179 338.75,375.846 337.5,377.5C 330.187,384.479 322.854,391.479 315.5,398.5C 321.741,391.083 328.241,383.75 335,376.5C 336.972,374.768 339.139,373.435 341.5,372.5 Z"/></g>
<g><path style="opacity:1" fill="#9fa1a0" d="M 1202.5,379.5 C 1214.17,379.5 1225.83,379.5 1237.5,379.5C 1237.5,383.167 1237.5,386.833 1237.5,390.5C 1226.17,390.5 1214.83,390.5 1203.5,390.5C 1203.17,390.5 1202.83,390.5 1202.5,390.5C 1213.65,389.505 1224.99,389.172 1236.5,389.5C 1236.5,386.5 1236.5,383.5 1236.5,380.5C 1224.99,380.828 1213.65,380.495 1202.5,379.5 Z"/></g>
<g><path style="opacity:1" fill="#d42523" d="M 234.5,368.5 C 233.437,371.732 231.437,374.232 228.5,376C 230.235,376.651 231.902,376.485 233.5,375.5C 234.506,375.938 234.506,376.604 233.5,377.5C 235.423,378.308 237.423,378.808 239.5,379C 242.809,382.125 245.476,385.625 247.5,389.5C 244.001,386.834 241.001,383.667 238.5,380C 237.833,379.333 237.167,379.333 236.5,380C 211.083,404.912 186.417,430.078 162.5,455.5C 155.886,461.778 149.219,468.111 142.5,474.5C 136.812,475.469 133.812,473.136 133.5,467.5C 148.747,453.754 163.581,439.421 178,424.5C 178.464,423.906 178.631,423.239 178.5,422.5C 179.833,420.5 181.5,418.833 183.5,417.5C 184.239,417.631 184.906,417.464 185.5,417C 192.096,410.91 198.096,404.41 203.5,397.5C 209.167,393.833 213.833,389.167 217.5,383.5C 219.833,380.5 222.5,377.833 225.5,375.5C 228.767,373.573 231.767,371.239 234.5,368.5 Z"/></g>
<g><path style="opacity:1" fill="#c8312a" d="M 254.5,380.5 C 259.833,385.167 264.833,390.167 269.5,395.5C 265.346,394.212 261.346,392.712 257.5,391C 256.424,392.726 256.257,394.559 257,396.5C 259.02,398.551 260.52,400.884 261.5,403.5C 256.5,399.167 251.833,394.5 247.5,389.5C 249.436,390.259 251.269,391.259 253,392.5C 253.808,390.852 255.641,389.685 258.5,389C 256.942,386.262 255.609,383.429 254.5,380.5 Z"/></g>
<g><path style="opacity:1" fill="#444543" d="M 876.5,391.5 C 865.346,392.495 854.012,392.828 842.5,392.5C 842.5,399.167 842.5,405.833 842.5,412.5C 842.167,412.5 841.833,412.5 841.5,412.5C 841.5,405.5 841.5,398.5 841.5,391.5C 853.167,391.5 864.833,391.5 876.5,391.5 Z"/></g>
<g><path style="opacity:1" fill="#343634" d="M 1202.5,390.5 C 1202.83,390.5 1203.17,390.5 1203.5,390.5C 1203.5,398.833 1203.5,407.167 1203.5,415.5C 1217.01,415.171 1230.34,415.504 1243.5,416.5C 1229.83,416.5 1216.17,416.5 1202.5,416.5C 1202.5,407.833 1202.5,399.167 1202.5,390.5 Z"/></g>
<g><path style="opacity:1" fill="#b43732" d="M 217.5,383.5 C 213.833,389.167 209.167,393.833 203.5,397.5C 207.833,392.5 212.5,387.833 217.5,383.5 Z"/></g>
<g><path style="opacity:1" fill="#aa413c" d="M 342.5,356.5 C 334.669,366.498 325.669,375.331 315.5,383C 306.689,392.978 297.355,402.478 287.5,411.5C 292.774,404.889 298.44,398.555 304.5,392.5C 309.48,386.853 314.813,381.52 320.5,376.5C 324.456,374.212 327.789,371.212 330.5,367.5C 333.5,364.167 336.5,360.833 339.5,357.5C 340.391,356.89 341.391,356.557 342.5,356.5 Z"/></g>
<g><path style="opacity:1" fill="#bc423a" d="M 269.5,395.5 C 273.833,399.167 277.833,403.167 281.5,407.5C 279.801,407.473 278.467,406.806 277.5,405.5C 274.08,402.749 271.413,399.416 269.5,395.5 Z"/></g>
<g><path style="opacity:1" fill="#ce2c28" d="M 506.5,290.5 C 505.278,291.937 505.278,293.437 506.5,295C 505.167,295.667 503.833,296.333 502.5,297C 503.317,301.236 504.317,301.402 505.5,297.5C 507.071,298.309 508.738,298.643 510.5,298.5C 512.206,294.465 515.206,291.798 519.5,290.5C 514.494,295.173 509.828,300.173 505.5,305.5C 503.97,306.211 502.637,307.211 501.5,308.5C 494.795,314.648 488.295,320.982 482,327.5C 481.536,328.094 481.369,328.761 481.5,329.5C 480.761,329.369 480.094,329.536 479.5,330C 473.773,335.391 468.439,341.058 463.5,347C 461.671,347.273 460.171,348.107 459,349.5C 454.701,353.87 450.867,358.536 447.5,363.5C 444.828,365.84 442.161,368.173 439.5,370.5C 437.583,370.246 436.249,369.246 435.5,367.5C 428.14,359.473 420.473,351.806 412.5,344.5C 407.573,339.911 402.573,335.244 397.5,330.5C 395.666,328.495 393.999,326.328 392.5,324C 390.866,323.506 389.199,323.34 387.5,323.5C 387.649,324.552 387.483,325.552 387,326.5C 384.96,328.37 383.127,330.37 381.5,332.5C 375.971,336.513 370.637,340.847 365.5,345.5C 360.833,352 355.333,357.667 349,362.5C 346.337,365.168 344.17,368.168 342.5,371.5C 341.833,371.5 341.5,371.833 341.5,372.5C 339.139,373.435 336.972,374.768 335,376.5C 328.241,383.75 321.741,391.083 315.5,398.5C 314.167,399.167 313.167,400.167 312.5,401.5C 303.726,409.441 295.393,417.941 287.5,427C 283.978,426.68 281.311,424.847 279.5,421.5C 282.056,422.378 284.39,423.711 286.5,425.5C 289.383,421.573 291.716,417.74 293.5,414C 290.24,414.482 286.907,414.482 283.5,414C 281.353,411.763 279.02,409.763 276.5,408C 277.252,407.329 277.586,406.496 277.5,405.5C 278.467,406.806 279.801,407.473 281.5,407.5C 283.246,409.252 285.246,410.585 287.5,411.5C 297.355,402.478 306.689,392.978 315.5,383C 325.669,375.331 334.669,366.498 342.5,356.5C 343.833,354.5 345.5,352.833 347.5,351.5C 357.152,343.348 366.319,334.681 375,325.5C 378.018,321.981 380.851,318.315 383.5,314.5C 385.479,311.854 387.812,309.521 390.5,307.5C 393.186,309.856 395.853,312.189 398.5,314.5C 398.856,316.19 399.856,317.19 401.5,317.5C 405.432,322.607 409.599,327.607 414,332.5C 414.816,333.823 415.983,334.489 417.5,334.5C 420.167,335.167 421.833,336.833 422.5,339.5C 427.124,346.124 432.791,351.791 439.5,356.5C 440.713,356.253 441.38,355.586 441.5,354.5C 444.117,351.853 447.117,349.686 450.5,348C 455.254,342.538 459.921,337.038 464.5,331.5C 468.18,327.817 471.514,323.817 474.5,319.5C 477.52,317.477 479.854,314.81 481.5,311.5C 486.44,308.23 490.773,304.23 494.5,299.5C 499.114,297.206 503.114,294.206 506.5,290.5 Z"/></g>
<g><path style="opacity:1" fill="#7a534d" d="M 415.5,331.5 C 417.595,332.412 419.595,333.579 421.5,335C 426.237,342.248 432.571,347.415 440.5,350.5C 442.177,349.813 443.844,349.146 445.5,348.5C 443.748,350.246 442.415,352.246 441.5,354.5C 439.217,354.392 437.217,353.559 435.5,352C 431.298,347.63 426.964,343.463 422.5,339.5C 421.833,336.833 420.167,335.167 417.5,334.5C 416.833,333.5 416.167,332.5 415.5,331.5 Z"/></g>
<g><path style="opacity:1" fill="#944443" d="M 412.5,344.5 C 420.473,351.806 428.14,359.473 435.5,367.5C 427.888,361.225 420.554,354.558 413.5,347.5C 413.443,346.391 413.11,345.391 412.5,344.5 Z"/></g>
<g><path style="opacity:1" fill="#ba3532" d="M 464.5,331.5 C 459.921,337.038 455.254,342.538 450.5,348C 447.117,349.686 444.117,351.853 441.5,354.5C 442.415,352.246 443.748,350.246 445.5,348.5C 445.833,347.5 446.5,346.833 447.5,346.5C 451.263,343.683 454.597,340.349 457.5,336.5C 457.5,335.833 457.833,335.5 458.5,335.5C 460.246,333.748 462.246,332.415 464.5,331.5 Z"/></g>
<g><path style="opacity:1" fill="#77534d" d="M 397.5,330.5 C 395.456,329.969 393.789,328.802 392.5,327C 391.167,326.333 389.833,326.333 388.5,327C 381.159,334.341 374.159,342.008 367.5,350C 365.612,351.394 363.612,352.56 361.5,353.5C 367.78,346.218 374.447,339.218 381.5,332.5C 383.127,330.37 384.96,328.37 387,326.5C 387.483,325.552 387.649,324.552 387.5,323.5C 389.199,323.34 390.866,323.506 392.5,324C 393.999,326.328 395.666,328.495 397.5,330.5 Z"/></g>
<g><path style="opacity:1" fill="#844a47" d="M 457.5,336.5 C 454.597,340.349 451.263,343.683 447.5,346.5C 447.369,345.761 447.536,345.094 448,344.5C 450.716,341.283 453.883,338.616 457.5,336.5 Z"/></g>
<g><path style="opacity:1" fill="#b13736" d="M 422.5,339.5 C 426.964,343.463 431.298,347.63 435.5,352C 437.217,353.559 439.217,354.392 441.5,354.5C 441.38,355.586 440.713,356.253 439.5,356.5C 432.791,351.791 427.124,346.124 422.5,339.5 Z"/></g>
<g><path style="opacity:1" fill="#785250" d="M 397.5,330.5 C 402.573,335.244 407.573,339.911 412.5,344.5C 413.11,345.391 413.443,346.391 413.5,347.5C 408.837,343.525 404.171,339.525 399.5,335.5C 398.438,333.978 397.771,332.312 397.5,330.5 Z"/></g>
<g><path style="opacity:1" fill="#8d4743" d="M 474.5,319.5 C 471.514,323.817 468.18,327.817 464.5,331.5C 462.246,332.415 460.246,333.748 458.5,335.5C 458.369,334.761 458.536,334.094 459,333.5C 464.083,328.576 469.25,323.909 474.5,319.5 Z"/></g>
<g><path style="opacity:1" fill="#a23f3c" d="M 401.5,317.5 C 406.5,321.833 411.167,326.5 415.5,331.5C 416.167,332.5 416.833,333.5 417.5,334.5C 415.983,334.489 414.816,333.823 414,332.5C 409.599,327.607 405.432,322.607 401.5,317.5 Z"/></g>
<g><path style="opacity:1" fill="#5f5d5c" d="M 481.5,311.5 C 479.854,314.81 477.52,317.477 474.5,319.5C 469.25,323.909 464.083,328.576 459,333.5C 458.536,334.094 458.369,334.761 458.5,335.5C 457.833,335.5 457.5,335.833 457.5,336.5C 453.883,338.616 450.716,341.283 448,344.5C 447.536,345.094 447.369,345.761 447.5,346.5C 446.5,346.833 445.833,347.5 445.5,348.5C 443.844,349.146 442.177,349.813 440.5,350.5C 432.571,347.415 426.237,342.248 421.5,335C 419.595,333.579 417.595,332.412 415.5,331.5C 411.167,326.5 406.5,321.833 401.5,317.5C 399.856,317.19 398.856,316.19 398.5,314.5C 426.227,314.936 453.894,313.936 481.5,311.5 Z"/></g>
<g><path style="opacity:1" fill="#636362" d="M 617.5,397.5 C 612.833,397.5 608.167,397.5 603.5,397.5C 603.827,407.348 603.494,417.014 602.5,426.5C 602.5,416.5 602.5,406.5 602.5,396.5C 607.695,396.179 612.695,396.513 617.5,397.5 Z"/></g>
<g><path style="opacity:1" fill="#cb2e2a" d="M 261.5,403.5 C 264.543,404.696 267.209,406.53 269.5,409C 271.81,409.497 274.143,409.663 276.5,409.5C 276.297,411.39 276.963,412.89 278.5,414C 277.376,414.249 276.376,414.749 275.5,415.5C 277.35,417.214 278.684,419.214 279.5,421.5C 273.167,415.833 267.167,409.833 261.5,403.5 Z"/></g>
<g><path style="opacity:1" fill="#555756" d="M 952.5,356.5 C 944.35,357.493 936.017,357.826 927.5,357.5C 927.831,380.673 927.498,403.673 926.5,426.5C 926.5,403.167 926.5,379.833 926.5,356.5C 935.167,356.5 943.833,356.5 952.5,356.5 Z"/></g>
<g><path style="opacity:1" fill="#b43832" d="M 203.5,397.5 C 198.096,404.41 192.096,410.91 185.5,417C 184.906,417.464 184.239,417.631 183.5,417.5C 189.833,410.5 196.5,403.833 203.5,397.5 Z"/></g>
<g><path style="opacity:1" fill="#abaead" d="M 841.5,412.5 C 841.833,412.5 842.167,412.5 842.5,412.5C 855.833,412.5 869.167,412.5 882.5,412.5C 882.819,417.363 882.486,422.03 881.5,426.5C 881.5,422.167 881.5,417.833 881.5,413.5C 867.99,413.829 854.656,413.496 841.5,412.5 Z"/></g>
<g><path style="opacity:1" fill="#de1e1f" d="M 269.5,395.5 C 271.413,399.416 274.08,402.749 277.5,405.5C 277.586,406.496 277.252,407.329 276.5,408C 279.02,409.763 281.353,411.763 283.5,414C 286.907,414.482 290.24,414.482 293.5,414C 291.716,417.74 289.383,421.573 286.5,425.5C 284.39,423.711 282.056,422.378 279.5,421.5C 278.684,419.214 277.35,417.214 275.5,415.5C 276.376,414.749 277.376,414.249 278.5,414C 276.963,412.89 276.297,411.39 276.5,409.5C 274.143,409.663 271.81,409.497 269.5,409C 267.209,406.53 264.543,404.696 261.5,403.5C 260.52,400.884 259.02,398.551 257,396.5C 256.257,394.559 256.424,392.726 257.5,391C 261.346,392.712 265.346,394.212 269.5,395.5 Z"/></g>
<g><path style="opacity:1" fill="#393934" d="M 1025.5,425.5 C 1026.04,425.56 1026.38,425.893 1026.5,426.5C 1021.35,427.814 1016.35,427.814 1011.5,426.5C 1016.36,426.819 1021.03,426.486 1025.5,425.5 Z"/></g>
<g><path style="opacity:1" fill="#a3302e" d="M 178.5,422.5 C 178.631,423.239 178.464,423.906 178,424.5C 163.581,439.421 148.747,453.754 133.5,467.5C 141.478,459.519 149.145,451.185 156.5,442.5C 164.112,436.225 171.446,429.558 178.5,422.5 Z"/></g>
<g><path style="opacity:1" fill="#a6302b" d="M 133.5,467.5 C 133.812,473.136 136.812,475.469 142.5,474.5C 141.594,476.914 139.928,477.747 137.5,477C 135.667,475.167 133.833,473.333 132,471.5C 131.227,469.648 131.727,468.314 133.5,467.5 Z"/></g>
</svg>
