<svg width="1049" height="146" viewBox="0 0 1049 146" fill="none" xmlns="http://www.w3.org/2000/svg">
<path d="M240.743 0.21875H141.842C132.844 0.21875 124.818 5.87434 121.791 14.3474L94.8711 89.691L127.842 144.829L158.831 54.5006C159.452 52.6892 161.156 51.4726 163.071 51.4726H222.407C227.625 51.4726 229.407 58.4263 224.833 60.9366L150.196 101.898C145.746 104.341 144.209 109.987 146.808 114.348L165.077 145.003H218.393C221.873 145.003 224.025 141.212 222.243 138.224L192.764 88.8203C191.784 87.178 192.37 85.0501 194.052 84.1403L253.804 51.8262C278.871 38.2698 269.24 0.21875 240.743 0.21875Z" fill="#FF1E1E"/>
<path d="M59.3552 140.432L16.9847 67.6342L6.77024 50.7257C4.20553 47.9978 6.1396 43.5247 9.88378 43.5247H56.2561C57.3638 43.5247 58.3454 42.8113 58.6873 41.7576L70.5169 5.30131C71.5426 2.14047 74.4875 0 77.8105 0H117.794C119.563 0 120.797 1.75308 120.2 3.41808L105.072 45.6439C103.98 48.692 101.091 50.7257 97.8533 50.7257H65.756C64.7634 50.7257 64.1497 51.8079 64.6592 52.6597L90.4704 95.8108C91.0244 96.7369 92.406 96.6019 92.7702 95.5861L105.01 61.4468C105.738 59.4146 108.502 59.1451 109.61 60.9983L153.126 133.819C153.592 134.598 154.432 135.074 155.339 135.074C156.967 135.074 157.98 133.308 157.159 131.902L150.29 120.143L197.454 96.6041L221.772 137.406C223.803 140.814 221.347 145.135 217.381 145.135H108.8C106.998 145.135 105.329 144.187 104.408 142.639L92.8859 123.291C92.3538 122.398 91.0344 122.48 90.6172 123.432L82.4784 142.013C81.6503 143.904 79.7664 145.111 77.7027 145.073L66.9237 144.876C63.7976 144.819 60.928 143.134 59.3552 140.432Z" fill="white"/>
<path d="M328.774 130.742C326.888 130.742 325.501 130.187 324.613 129.078C323.726 127.969 323.282 126.693 323.282 125.251L326.777 18.0851C326.888 17.0867 327.331 16.1992 328.108 15.4227C328.885 14.6461 329.828 14.2578 330.937 14.2578H351.072C352.625 14.2578 353.735 14.5906 354.4 15.2563C355.177 15.9219 355.51 16.9203 355.399 18.2516L352.736 82.1515L372.538 44.5437C373.093 43.6562 373.87 42.7133 374.868 41.7148C375.867 40.6054 377.253 40.0508 379.028 40.0508H390.843C392.729 40.0508 393.894 40.6054 394.338 41.7148C394.892 42.7133 395.225 43.6562 395.336 44.5437L399.663 82.8171L424.291 17.9187C425.178 15.4781 427.12 14.2578 430.115 14.2578H451.415C452.635 14.2578 453.467 14.7016 453.911 15.5891C454.355 16.4766 454.355 17.4195 453.911 18.418L414.306 125.251C413.863 126.693 412.92 127.969 411.477 129.078C410.146 130.187 408.538 130.742 406.652 130.742H390.51C388.624 130.742 387.293 130.243 386.517 129.244C385.851 128.246 385.407 127.303 385.185 126.415L377.031 78.8234L351.738 126.415C351.294 127.303 350.462 128.246 349.242 129.244C348.132 130.243 346.635 130.742 344.749 130.742H328.774Z" fill="white"/>
<path d="M453.777 130.742C452.557 130.742 451.614 130.354 450.948 129.577C450.393 128.801 450.227 127.802 450.449 126.582L473.413 18.418C473.635 17.1977 474.245 16.1992 475.243 15.4227C476.242 14.6461 477.351 14.2578 478.572 14.2578H523.834C538.145 14.2578 548.684 17.5859 555.451 24.2422C562.329 30.7875 564.493 40.1062 561.941 52.1984C560.277 60.0749 556.949 66.7312 551.957 72.1671C547.075 77.603 541.251 81.7077 534.484 84.4812L548.628 125.417C548.739 125.75 548.795 126.027 548.795 126.249C548.795 126.471 548.739 126.804 548.628 127.248C548.518 128.135 548.018 128.967 547.131 129.744C546.243 130.409 545.3 130.742 544.302 130.742H522.336C520.229 130.742 518.786 130.243 518.01 129.244C517.344 128.135 516.845 127.137 516.512 126.249L505.363 89.6398H488.223L480.402 126.582C480.18 127.802 479.57 128.801 478.572 129.577C477.573 130.354 476.464 130.742 475.243 130.742H453.777ZM493.215 66.1765H512.518C517.732 66.1765 521.893 64.9007 524.999 62.3492C528.105 59.7976 530.157 56.3031 531.156 51.8656C532.043 47.539 531.489 44.0445 529.492 41.382C527.606 38.7195 523.945 37.3883 518.509 37.3883H499.372L493.215 66.1765Z" fill="white"/>
<path d="M611.609 132.406C604.62 132.406 598.13 131.463 592.14 129.577C586.149 127.691 581.102 124.862 576.997 121.091C572.892 117.319 569.952 112.604 568.177 106.946C566.513 101.288 566.291 94.6874 567.512 87.1437C568.399 82.3734 569.342 77.6031 570.341 72.8327C571.45 68.0624 572.559 63.2367 573.669 58.3554C577.33 43.3789 583.93 32.0078 593.471 24.2422C603.012 16.4766 615.88 12.5938 632.077 12.5938C639.066 12.5938 645.501 13.5922 651.38 15.5891C657.371 17.475 662.419 20.3594 666.523 24.2422C670.739 28.125 673.679 32.8953 675.343 38.5531C677.118 44.2109 677.34 50.8117 676.008 58.3554C675.232 63.2367 674.289 68.0624 673.18 72.8327C672.181 77.6031 671.127 82.3734 670.018 87.1437C666.246 102.342 659.59 113.713 650.049 121.257C640.508 128.69 627.695 132.406 611.609 132.406ZM613.773 108.444C619.763 108.444 625.033 106.669 629.581 103.119C634.13 99.5686 637.347 93.9109 639.233 86.1452C640.453 81.264 641.507 76.6601 642.394 72.3335C643.393 68.007 644.28 63.514 645.057 58.8546C646.499 51.089 645.833 45.4312 643.06 41.8812C640.287 38.3312 635.905 36.5562 629.914 36.5562C623.923 36.5562 618.654 38.3312 614.105 41.8812C609.668 45.4312 606.506 51.089 604.62 58.8546C603.4 63.514 602.291 68.007 601.292 72.3335C600.405 76.6601 599.517 81.264 598.63 86.1452C597.298 93.9109 597.964 99.5686 600.626 103.119C603.289 106.669 607.671 108.444 613.773 108.444Z" fill="white"/>
<path d="M730.076 132.406C723.087 132.406 716.597 131.463 710.607 129.577C704.616 127.691 699.568 124.862 695.464 121.091C691.359 117.319 688.419 112.604 686.644 106.946C684.98 101.288 684.758 94.6874 685.978 87.1437C686.866 82.3734 687.809 77.6031 688.807 72.8327C689.917 68.0624 691.026 63.2367 692.136 58.3554C695.796 43.3789 702.397 32.0078 711.938 24.2422C721.478 16.4766 734.347 12.5938 750.544 12.5938C757.533 12.5938 763.967 13.5922 769.847 15.5891C775.838 17.475 780.885 20.3594 784.99 24.2422C789.206 28.125 792.146 32.8953 793.81 38.5531C795.585 44.2109 795.806 50.8117 794.475 58.3554C793.699 63.2367 792.756 68.0624 791.646 72.8327C790.648 77.6031 789.594 82.3734 788.485 87.1437C784.713 102.342 778.056 113.713 768.516 121.257C758.975 128.69 746.162 132.406 730.076 132.406ZM732.239 108.444C738.23 108.444 743.5 106.669 748.048 103.119C752.596 99.5686 755.814 93.9109 757.699 86.1452C758.92 81.264 759.974 76.6601 760.861 72.3335C761.86 68.007 762.747 63.514 763.524 58.8546C764.966 51.089 764.3 45.4312 761.527 41.8812C758.753 38.3312 754.371 36.5562 748.381 36.5562C742.39 36.5562 737.121 38.3312 732.572 41.8812C728.135 45.4312 724.973 51.089 723.087 58.8546C721.867 63.514 720.757 68.007 719.759 72.3335C718.871 76.6601 717.984 81.264 717.096 86.1452C715.765 93.9109 716.431 99.5686 719.093 103.119C721.756 106.669 726.138 108.444 732.239 108.444Z" fill="white"/>
<path d="M803.114 130.742C801.894 130.742 800.951 130.354 800.285 129.577C799.619 128.801 799.398 127.802 799.619 126.582L822.584 18.418C822.805 17.1977 823.416 16.1992 824.414 15.4227C825.412 14.6461 826.522 14.2578 827.742 14.2578H845.714C847.489 14.2578 848.709 14.757 849.375 15.7555C850.151 16.643 850.651 17.3641 850.873 17.9187L868.844 70.5031L909.447 17.9187C909.78 17.3641 910.446 16.643 911.444 15.7555C912.554 14.757 913.996 14.2578 915.771 14.2578H933.743C934.963 14.2578 935.906 14.6461 936.572 15.4227C937.237 16.1992 937.459 17.1977 937.237 18.418L914.273 126.582C914.051 127.802 913.441 128.801 912.443 129.577C911.444 130.354 910.335 130.742 909.115 130.742H889.146C888.037 130.742 887.149 130.354 886.483 129.577C885.818 128.801 885.596 127.802 885.818 126.582L898.797 65.1781L873.337 98.9585C872.561 99.846 871.618 100.733 870.508 101.621C869.51 102.398 868.234 102.786 866.681 102.786H858.028C856.475 102.786 855.366 102.398 854.7 101.621C854.034 100.844 853.535 99.9569 853.202 98.9585L841.387 63.6804L827.909 126.582C827.687 127.802 827.077 128.801 826.078 129.577C825.191 130.354 824.192 130.742 823.083 130.742H803.114Z" fill="white"/>
<path d="M935.261 130.742C934.152 130.742 933.264 130.354 932.599 129.577C931.933 128.69 931.711 127.691 931.933 126.582L935.428 110.274C935.76 108.721 936.315 107.445 937.092 106.447C937.979 105.448 938.645 104.727 939.089 104.283L1005.15 39.0523H956.395C955.174 39.0523 954.231 38.664 953.566 37.8875C953.011 37.1109 952.845 36.1125 953.067 34.8922L956.561 18.418C956.783 17.1977 957.338 16.1992 958.225 15.4227C959.224 14.6461 960.333 14.2578 961.553 14.2578H1045.42C1046.64 14.2578 1047.59 14.6461 1048.25 15.4227C1048.92 16.1992 1049.14 17.1977 1048.92 18.418L1045.42 34.5594C1045.2 35.7797 1044.76 36.8336 1044.09 37.7211C1043.43 38.6086 1042.7 39.4406 1041.93 40.2172L977.362 105.615H1027.95C1029.17 105.615 1030.11 106.058 1030.78 106.946C1031.44 107.723 1031.61 108.721 1031.28 109.941L1027.78 126.582C1027.56 127.802 1026.95 128.801 1025.95 129.577C1025.06 130.354 1024.01 130.742 1022.79 130.742H935.261Z" fill="white"/>
</svg>
